<svg preserveAspectRatio="none" width="100%" height="100%" overflow="visible" style="display: block;" viewBox="0 0 102.902 114" fill="none" xmlns="http://www.w3.org/2000/svg">
<g id="Group 11">
<path id="Star 1" d="M36.9594 10.9346C41.1202 -3.64488 61.7822 -3.64488 65.943 10.9346C68.175 18.7555 76.21 23.3945 84.0991 21.417C98.8057 17.7306 109.137 35.6245 98.5909 46.5176C92.9338 52.361 92.9338 61.639 98.5909 67.4824C109.137 78.3755 98.8057 96.2694 84.0991 92.583C76.21 90.6055 68.175 95.2445 65.943 103.065C61.7822 117.645 41.1202 117.645 36.9594 103.065C34.7274 95.2445 26.6924 90.6055 18.8033 92.583C4.09671 96.2694 -6.23432 78.3755 4.31152 67.4824C9.96861 61.639 9.96861 52.361 4.31152 46.5176C-6.23432 35.6245 4.09671 17.7306 18.8033 21.417C26.6924 23.3945 34.7274 18.7555 36.9594 10.9346Z" fill="var(--fill-0, #D03F50)"/>
<g id="Group 13">
<path id="Vector" fill-rule="evenodd" clip-rule="evenodd" d="M48.8251 29.5789C56.058 29.5789 62.6535 32.3234 67.6217 36.8256L67.0332 37.1646C66.2765 37.6012 65.8101 38.3579 65.7613 39.2284L65.4629 44.4246L62.5449 46.1088C62.2032 45.702 61.8452 45.3088 61.4709 44.9345C58.2328 41.7018 53.7611 39.7003 48.8249 39.7003C43.8863 39.7003 39.4169 41.7018 36.1816 44.9372C32.9462 48.1726 30.9447 52.6422 30.9447 57.5805C30.9447 62.5188 32.9462 66.9885 36.1816 70.2237C39.417 73.4592 43.8865 75.4606 48.8249 75.4606C53.7632 75.4606 58.2329 73.4592 61.4681 70.2237C64.7036 66.9883 66.705 62.5188 66.705 57.5805C66.705 55.4217 66.3226 53.3497 65.6202 51.4324L68.5356 49.7482L73.1866 52.0887C73.9649 52.4792 74.8571 52.4548 75.6111 52.0182L76.2023 51.6765C76.6118 53.5803 76.8288 55.5546 76.8288 57.5777C76.8288 73.0439 64.291 85.5789 48.8276 85.5789C33.3587 85.5816 20.8237 73.0467 20.8237 57.5805C20.8237 42.1171 33.3589 29.5789 48.8251 29.5789ZM50.5228 58.654L77.0354 43.3475C77.887 42.8567 78.1771 41.7692 77.6863 40.9176C77.1954 40.066 76.108 39.7759 75.2564 40.2667L48.7437 55.5732C47.8922 56.0641 47.602 57.1516 48.0929 58.0031C48.5837 58.8547 49.6712 59.1449 50.5228 58.654ZM61.1756 46.9001C60.918 46.6018 60.6495 46.3143 60.3701 46.035C57.4168 43.0816 53.3351 41.2538 48.8252 41.2538C44.3179 41.2538 40.2336 43.0816 37.2802 46.035C34.3269 48.9883 32.499 53.07 32.499 57.5799C32.499 62.0872 34.3269 66.1715 37.2802 69.1249C40.2336 72.0782 44.3152 73.9061 48.8252 73.9061C53.3325 73.9061 57.4167 72.0782 60.3701 69.1249C63.3235 66.1715 65.1513 62.0899 65.1513 57.5799C65.1513 55.7033 64.834 53.8998 64.2509 52.221L55.7892 57.1053C55.8001 57.2626 55.8055 57.4199 55.8055 57.5772C55.8055 59.5054 55.0244 61.252 53.7607 62.513C52.4969 63.7768 50.7504 64.5578 48.8249 64.5578C46.8967 64.5578 45.1501 63.7768 43.889 62.513C42.6253 61.2492 41.8442 59.5028 41.8442 57.5772C41.8442 55.649 42.6253 53.9025 43.889 52.6414C45.1528 51.3776 46.8993 50.5966 48.8249 50.5966C50.2649 50.5966 51.6046 51.0332 52.7166 51.7817L61.1756 46.9001ZM51.1629 52.6793C50.4551 52.3403 49.6604 52.1505 48.8225 52.1505C47.3227 52.1505 45.9667 52.758 44.9851 53.7397C44.0034 54.7215 43.3958 56.0802 43.3958 57.5771C43.3958 59.0769 44.0033 60.4329 44.9851 61.4145C45.9668 62.3963 47.3255 63.0038 48.8225 63.0038C50.3222 63.0038 51.6782 62.3963 52.6599 61.4145C53.5494 60.5251 54.1298 59.3317 54.2328 58.0001L51.1655 59.7711C49.6984 60.6173 47.8136 60.1128 46.9674 58.6456C46.1212 57.1784 46.6257 55.2936 48.0929 54.4475L51.1629 52.6793ZM78.7655 43.4122C78.5079 43.8353 78.1418 44.2041 77.6807 44.4699L69.873 48.9772L73.7647 50.9352C74.1553 51.1305 74.5811 51.1197 74.9607 50.9L82.6518 46.4605C82.8579 46.3412 82.9718 46.1351 82.9664 45.8964C82.9583 45.6605 82.8335 45.4598 82.6193 45.3513L78.7655 43.4122ZM66.8033 43.6509L74.611 39.1436C75.0694 38.8778 75.5711 38.7449 76.0674 38.7341L76.3142 34.4248C76.3278 34.1888 76.2193 33.9773 76.0159 33.8525C75.8152 33.7278 75.5765 33.7251 75.3704 33.8444L67.6794 38.2839C67.3024 38.5036 67.0773 38.8643 67.0529 39.3009L66.8033 43.6509Z" fill="var(--fill-0, white)"/>
</g>
</g>
</svg>
