<svg width="42" height="64" viewBox="0 0 42 64" fill="none" xmlns="http://www.w3.org/2000/svg">
<g id="Group 10">
<path id="Vector" d="M20.9335 55.0185C20.9335 55.0185 40.7948 41.5488 40.7948 19.8613C40.7948 8.89363 31.9012 0 20.9335 0C9.963 0 1.0722 8.89363 1.0722 19.8613C1.0722 41.546 20.9335 55.0185 20.9335 55.0185ZM20.9335 11.0341C25.7995 11.0341 29.7608 14.9953 29.7608 19.8613C29.7608 24.7273 25.7995 28.6886 20.9335 28.6886C16.0675 28.6886 12.1063 24.7273 12.1063 19.8613C12.1063 14.9953 16.0675 11.0341 20.9335 11.0341Z" fill="white"/>
<path id="Vector_2" d="M0.00215509 58.1574V60.0001C0.00215509 62.2097 9.37316 64 20.934 64C32.4949 64 41.8659 62.2097 41.8659 60.0001V58.1574C37.4164 61.0566 25.2318 61.327 20.934 61.327C16.6363 61.327 4.45179 61.0594 0.00215509 58.1574Z" fill="white"/>
<path id="Vector_3" d="M27.3118 51.8682C24.3905 54.6405 22.1368 56.2018 21.8637 56.3866L20.9341 57.0183L20.0045 56.3866C19.7314 56.2018 17.4777 54.6404 14.5565 51.8682C6.11834 52.384 0 53.8902 0 55.6722C0 57.8817 9.371 59.6693 20.9319 59.6693C32.4927 59.6693 41.8638 57.879 41.8638 55.6722C41.8638 53.8902 35.7453 52.384 27.3101 51.8682H27.3118Z" fill="white"/>
</g>
</svg>
