<svg preserveAspectRatio="none" width="100%" height="100%" overflow="visible" style="display: block;" viewBox="0 0 114 114" fill="none" xmlns="http://www.w3.org/2000/svg">
<g id="Group 12">
<circle id="Ellipse 2" cx="57" cy="57" r="57" fill="var(--fill-0, #F39D57)"/>
<g id="Group 14">
<path id="Vector" fill-rule="evenodd" clip-rule="evenodd" d="M34.527 56.1271C35.0707 44.564 44.3628 35.2693 55.9286 34.7283V46.519C48.4928 46.9904 42.1719 52.2698 39.4291 54.9614C39.4291 54.9614 39.4211 54.9694 39.413 54.9775C39.0863 55.3123 38.8425 55.706 38.6925 56.1266L34.527 56.1271ZM58.0714 34.7283C69.6345 35.2693 78.9265 44.564 79.4702 56.1271H75.2998C75.1498 55.7066 74.9141 55.3128 74.5846 54.978C74.5766 54.97 74.5712 54.97 74.5632 54.9619C71.8284 52.27 65.507 46.9906 58.0712 46.5195L58.0714 34.7283ZM79.4702 58.2699C78.9265 69.833 69.6345 79.1278 58.0714 79.6688V67.8781C65.5072 67.4066 71.828 62.1273 74.5709 59.4356C74.5709 59.4356 74.5762 59.4276 74.5843 59.4196C74.9137 59.0848 75.1548 58.691 75.3048 58.2705L79.4702 58.2699ZM55.9286 79.6688C44.3628 79.1277 35.0708 69.833 34.527 58.2699H38.7001C38.8501 58.6905 39.0858 59.0842 39.4126 59.4191C39.4207 59.4271 39.4287 59.4271 39.4341 59.4351C42.1716 62.1271 48.4929 67.4065 55.9287 67.8775L55.9286 79.6688ZM57 48.6269C64.2349 48.6269 70.4193 53.8902 73.0551 56.4775C73.248 56.6757 73.3417 56.9409 73.3417 57.1981C73.3417 57.4552 73.248 57.7123 73.0632 57.9132C70.4194 60.506 64.2347 65.7694 56.9998 65.7694C49.7622 65.7694 43.5778 60.506 40.9419 57.9187C40.7491 57.7205 40.6553 57.4553 40.6553 57.1982C40.6553 56.941 40.7491 56.6839 40.9339 56.483C43.5776 53.8902 49.7624 48.6269 57 48.6269ZM57 50.7697C53.4482 50.7697 50.5715 53.6491 50.5715 57.1982C50.5715 60.7473 53.4482 63.6267 57 63.6267C60.5491 63.6267 63.4285 60.7473 63.4285 57.1982C63.4285 53.6491 60.5491 50.7697 57 50.7697ZM57 52.9125C59.3625 52.9125 61.2857 54.8331 61.2857 57.1982C61.2857 59.5633 59.3625 61.4839 57 61.4839C54.6348 61.4839 52.7143 59.5633 52.7143 57.1982C52.7143 54.8331 54.6348 52.9125 57 52.9125ZM57 27.1985C58.7705 27.1985 60.2142 28.6423 60.2142 30.4128C60.2142 32.1833 58.7705 33.627 57 33.627C55.2268 33.627 53.7857 32.1833 53.7857 30.4128C53.7857 28.6423 55.2268 27.1985 57 27.1985ZM57 29.3414C56.4054 29.3414 55.9286 29.8208 55.9286 30.4128C55.9286 31.0047 56.4054 31.4842 57 31.4842C57.5919 31.4842 58.0714 31.0047 58.0714 30.4128C58.0714 29.8208 57.5919 29.3414 57 29.3414ZM83.7851 53.9843C85.5555 53.9843 86.9993 55.428 86.9993 57.1985C86.9993 58.969 85.5555 60.4128 83.7851 60.4128C82.0119 60.4128 80.5708 58.969 80.5708 57.1985C80.5708 55.428 82.0119 53.9843 83.7851 53.9843ZM83.7851 56.1271C83.1904 56.1271 82.7136 56.6066 82.7136 57.1985C82.7136 57.7905 83.1904 58.2699 83.7851 58.2699C84.377 58.2699 84.8565 57.7905 84.8565 57.1985C84.8565 56.6066 84.377 56.1271 83.7851 56.1271ZM57 80.77C58.7705 80.77 60.2142 82.2138 60.2142 83.9843C60.2142 85.7548 58.7705 87.1985 57 87.1985C55.2268 87.1985 53.7857 85.7548 53.7857 83.9843C53.7857 82.2138 55.2268 80.77 57 80.77ZM57 82.9129C56.4054 82.9129 55.9286 83.3923 55.9286 83.9843C55.9286 84.5762 56.4054 85.0557 57 85.0557C57.5919 85.0557 58.0714 84.5762 58.0714 83.9843C58.0714 83.3923 57.5919 82.9129 57 82.9129ZM30.2149 53.9843C31.9854 53.9843 33.4292 55.428 33.4292 57.1985C33.4292 58.969 31.9854 60.4128 30.2149 60.4128C28.4418 60.4128 27.0007 58.969 27.0007 57.1985C27.0007 55.428 28.4418 53.9843 30.2149 53.9843ZM30.2149 56.1271C29.6203 56.1271 29.1435 56.6066 29.1435 57.1985C29.1435 57.7905 29.6203 58.2699 30.2149 58.2699C30.8069 58.2699 31.2863 57.7905 31.2863 57.1985C31.2863 56.6066 30.8069 56.1271 30.2149 56.1271Z" fill="var(--fill-0, white)"/>
</g>
</g>
</svg>
