<svg preserveAspectRatio="none" width="100%" height="100%" overflow="visible" style="display: block;" viewBox="0 0 122.193 135.371" fill="none" xmlns="http://www.w3.org/2000/svg">
<path id="Star 1" d="M43.888 12.9845C48.8288 -4.32817 73.3642 -4.32817 78.305 12.9845V12.9845C80.9554 22.2715 90.4967 27.7802 99.8647 25.432V25.432C117.328 21.0545 129.596 42.3028 117.073 55.238V55.238C110.356 62.1769 110.356 73.1942 117.073 80.133V80.133C129.596 93.0682 117.328 114.317 99.8647 109.939V109.939C90.4967 107.591 80.9554 113.099 78.305 122.387V122.387C73.3642 139.699 48.8288 139.699 43.888 122.387V122.387C41.2376 113.099 31.6963 107.591 22.3283 109.939V109.939C4.8647 114.317 -7.40303 93.0682 5.11978 80.133V80.133C11.8374 73.1942 11.8374 62.1769 5.11978 55.238V55.238C-7.40303 42.3028 4.86469 21.0545 22.3283 25.432V25.432C31.6963 27.7802 41.2376 22.2715 43.888 12.9845V12.9845Z" fill="#D03F50"/>
</svg>
