<svg preserveAspectRatio="none" width="100%" height="100%" overflow="visible" style="display: block;" viewBox="0 0 63.2005 69" fill="none" xmlns="http://www.w3.org/2000/svg">
<path id="Vector" fill-rule="evenodd" clip-rule="evenodd" d="M44.8651 38.4281V41.416H43.4906V38.4281C43.9346 38.5106 44.421 38.5106 44.8651 38.4281ZM47.3391 46.8463V52.3397H48.7136V46.8463H47.3391ZM15.4862 68.061C15.4862 68.3185 15.5922 68.5532 15.7627 68.7264C15.9309 68.8951 16.1661 69 16.4247 69H20.4685C20.9864 69.0016 21.4055 68.576 21.407 68.061V62.965H15.4862V68.061ZM57.2826 53.7144H25.8596C23.7728 53.7141 19.5493 53.7145 17.4567 53.7144C17.2204 53.7122 16.9904 53.5899 16.8634 53.3706L7.32218 36.8454C4.564 32.4965 -1.91164 36.2669 0.546087 40.8239C0.546087 40.8238 11.3992 59.6215 11.3992 59.6215C12.1294 60.8981 13.4864 61.6028 14.9168 61.5904C19.5701 61.5884 44.791 61.5919 49.987 61.5904H57.2826C60.7275 61.6718 62.5423 57.2134 60.0669 54.8649C59.3564 54.1543 58.3718 53.7144 57.2826 53.7144ZM50.6743 68.061C50.6743 68.3185 50.7803 68.5532 50.9508 68.7237C51.1212 68.894 51.3559 69 51.6132 69H55.6566C56.1711 69 56.5955 68.5757 56.5953 68.061V62.965H50.6743V68.061ZM61.8669 42.7906H34.1851C32.4337 42.8233 32.4174 45.4354 34.1851 45.4717H61.8669C62.2347 45.4717 62.57 45.3205 62.8132 45.0774C63.6517 44.2953 63.0336 42.753 61.8669 42.7906ZM46.6358 34.6576V31.3542H41.7199V34.6576C41.7199 36.0078 42.8277 37.1156 44.1778 37.1156C45.5279 37.1156 46.6358 36.0078 46.6358 34.6576ZM22.4909 52.3397H25.1724V20.3197C24.286 20.2544 23.3856 20.2335 22.4909 20.2566V52.3397ZM31.9292 19.9478C35.9046 19.308 39.97 19.3381 43.9355 20.2161C43.68 10.326 36.4733 2.04939 26.8518 0.322988C27.971 1.50487 28.95 3.26075 29.7373 5.4489C31.0918 9.21503 31.9187 14.3152 31.9292 19.9478ZM30.5592 19.8587C30.5614 13.628 29.0178 0.830932 23.4719 0C17.8723 0.689992 15.977 13.4987 15.8117 19.7856C20.7489 18.5894 25.7131 18.5389 30.5592 19.8587ZM14.4401 19.8452C14.5987 14.1534 15.5746 9.0228 17.0479 5.26753C17.8969 3.10337 18.9254 1.37652 20.0773 0.227406C10.3927 1.68172 2.94453 9.77728 2.432 19.6754C6.49287 19.176 10.4361 19.2284 14.4401 19.8452Z" fill="white"/>
</svg>
