<svg preserveAspectRatio="none" width="100%" height="100%" overflow="visible" style="display: block;" viewBox="0 0 36.0575 36.1063" fill="none" xmlns="http://www.w3.org/2000/svg">
<path id="Vector" d="M24.1587 0L0.664243 26.8291C-0.245219 27.8902 -0.245218 29.5575 0.81582 30.5427L5.59049 35.3174C6.57574 36.3027 8.24309 36.3785 9.30413 35.469L36.0575 11.9746C33.2533 11.3683 30.5249 9.92829 28.327 7.80621C26.205 5.53256 24.765 2.80417 24.1587 0ZM25.9018 13.1114L22.1882 16.825C21.7334 17.2798 20.9756 17.2798 20.5208 16.825L19.3082 15.6124C18.8535 15.1577 18.8535 14.3998 19.3082 13.9451L23.0218 10.2314C23.4766 9.77671 24.2345 9.77671 24.6892 10.2314L25.9018 11.4441C26.3565 11.8988 26.3565 12.6567 25.9018 13.1114Z" fill="var(--fill-0, white)"/>
</svg>
