<svg preserveAspectRatio="none" width="100%" height="100%" overflow="visible" style="display: block;" viewBox="0 0 35.3174 34.5224" fill="none" xmlns="http://www.w3.org/2000/svg">
<path id="Vector" d="M35.2416 3.22174C35.2416 2.31228 34.8627 1.40282 34.1048 0.796512C33.4227 0.190204 32.4375 -0.11295 31.528 0.038627L11.3683 2.69122C9.77671 2.91859 8.5641 4.28278 8.5641 5.87434V23.3815C7.95779 23.2299 7.35148 23.1541 6.74517 23.1541C2.95575 23.1541 0 25.6551 0 28.8382C0 32.0214 2.95575 34.5224 6.74517 34.5224C10.5346 34.5224 13.4903 32.0214 13.4903 28.8382V13.2258L30.3912 11.028V20.5015C29.7849 20.3499 29.1786 20.2741 28.5723 20.2741C24.7828 20.2741 21.8271 22.7752 21.8271 25.9583C21.8271 29.1414 24.7828 31.6424 28.5723 31.6424C32.3617 31.6424 35.3174 29.1414 35.3174 25.9583V3.22174H35.2416Z" fill="var(--fill-0, white)"/>
</svg>
