<svg preserveAspectRatio="none" width="100%" height="100%" overflow="visible" style="display: block;" viewBox="0 0 67.4894 67.4894" fill="none" xmlns="http://www.w3.org/2000/svg">
<path id="Vector" d="M33.7447 0C15.1418 0 0 15.1418 0 33.7447C0 52.3475 15.1418 67.4894 33.7447 67.4894C52.3475 67.4894 67.4894 52.3475 67.4894 33.7447C67.4894 15.1418 52.3475 0 33.7447 0ZM12.9787 28.5532C12.9787 24.2616 16.4743 20.766 20.766 20.766C25.0576 20.766 28.5532 24.2616 28.5532 28.5532C28.5532 29.0377 28.1725 29.4184 27.6879 29.4184C27.2034 29.4184 26.8227 29.0377 26.8227 28.5532C26.8227 25.2133 24.1058 22.4965 20.766 22.4965C17.4261 22.4965 14.7092 25.2133 14.7092 28.5532C14.7092 29.0377 14.3285 29.4184 13.844 29.4184C13.3594 29.4184 12.9787 29.0377 12.9787 28.5532ZM44.6641 55.5662C44.5949 55.6182 44.5257 55.6701 44.4391 55.7047C41.3416 57.6774 37.6902 58.8542 33.7447 58.8542C29.7991 58.8542 26.1478 57.6947 23.0502 55.7047C22.9637 55.6701 22.8945 55.6182 22.8252 55.5662C17.4261 52.0014 13.844 45.8928 13.844 38.9362C13.844 38.4516 14.2247 38.0709 14.7092 38.0709H52.7801C53.2647 38.0709 53.6454 38.4516 53.6454 38.9362C53.6454 45.8755 50.0633 52.0014 44.6641 55.5662ZM53.6454 29.4184C53.1608 29.4184 52.7801 29.0377 52.7801 28.5532C52.7801 25.2133 50.0633 22.4965 46.7234 22.4965C43.3835 22.4965 40.6667 25.2133 40.6667 28.5532C40.6667 29.0377 40.286 29.4184 39.8014 29.4184C39.3169 29.4184 38.9362 29.0377 38.9362 28.5532C38.9362 24.2616 42.4318 20.766 46.7234 20.766C51.015 20.766 54.5106 24.2616 54.5106 28.5532C54.5106 29.0377 54.1299 29.4184 53.6454 29.4184Z" fill="var(--fill-0, white)"/>
</svg>
