<svg preserveAspectRatio="none" width="100%" height="100%" overflow="visible" style="display: block;" viewBox="0 0 268 268" fill="none" xmlns="http://www.w3.org/2000/svg">
<g id="Frame 85">
<path id="Star 1" d="M114.768 67.3897C120.29 48.0412 147.71 48.0412 153.232 67.3897L154.278 71.0548C157.24 81.434 167.903 87.5904 178.373 84.9661L182.07 84.0394C201.587 79.1471 215.298 102.894 201.302 117.35L198.651 120.089C191.144 127.844 191.144 140.156 198.651 147.911L201.302 150.65C215.298 165.106 201.587 188.853 182.07 183.961L178.373 183.034C167.903 180.41 157.24 186.566 154.278 196.945L153.232 200.61C147.71 219.959 120.29 219.959 114.768 200.61L113.722 196.945C110.76 186.566 100.097 180.41 89.6269 183.034L85.9299 183.961C66.4127 188.853 52.7023 165.106 66.6978 150.65L69.3488 147.911C76.8564 140.156 76.8564 127.844 69.3488 120.089L66.6978 117.35C52.7023 102.894 66.4127 79.1471 85.9299 84.0394L89.627 84.9661C100.097 87.5904 110.76 81.434 113.722 71.0548L114.768 67.3897Z" fill="var(--fill-0, #D03F50)"/>
<g id="Group 9">
<path id="Vector" d="M103.253 157.752H116.523C120.312 162.982 126.453 166.408 133.39 166.408C140.527 166.408 146.831 162.799 150.589 157.31C150.492 157.455 150.406 157.607 150.304 157.752H164.992V118.541L103.254 118.545V157.756L103.253 157.752ZM133.39 165.104C122.62 165.104 113.859 156.342 113.859 145.573C113.859 134.803 122.621 126.042 133.39 126.042C144.16 126.042 152.921 134.803 152.921 145.573C152.921 156.343 144.16 165.104 133.39 165.104ZM151.3 156.166C151.148 156.432 150.984 156.693 150.82 156.955C150.988 156.697 151.144 156.432 151.3 156.166ZM153.101 122.521C153.101 122.162 153.249 121.834 153.488 121.595C153.726 121.357 154.054 121.209 154.414 121.209H160.234C160.593 121.209 160.921 121.357 161.16 121.595C161.398 121.834 161.546 122.162 161.546 122.521V123.826C161.546 124.185 161.398 124.513 161.16 124.751C160.921 124.99 160.593 125.138 160.234 125.138H154.414C154.054 125.138 153.726 124.99 153.488 124.751C153.249 124.513 153.101 124.185 153.101 123.826V122.521ZM125.656 122.357C127.98 121.119 130.633 120.416 133.445 120.416C136.297 120.416 138.98 121.134 141.324 122.404C143.758 123.72 145.82 125.627 147.328 127.927C147.875 128.763 149.226 131.224 150.457 133.654C149.629 132.47 148.676 131.384 147.625 130.4C147.144 129.533 146.742 128.837 146.504 128.47C145.086 126.302 143.144 124.509 140.859 123.275C138.656 122.084 136.133 121.404 133.449 121.404C130.801 121.404 128.305 122.064 126.125 123.224C123.859 124.431 121.926 126.181 120.5 128.302C120.23 128.705 119.804 129.408 119.312 130.263C118.226 131.263 117.246 132.369 116.39 133.576C117.586 131.236 119.043 128.705 119.68 127.755C121.195 125.501 123.25 123.638 125.66 122.357H125.656ZM109.281 122.084C109.785 121.58 110.48 121.267 111.25 121.267C112.019 121.267 112.715 121.58 113.219 122.084C113.723 122.587 114.035 123.283 114.035 124.052C114.035 124.822 113.723 125.517 113.219 126.021C112.715 126.525 112.019 126.838 111.25 126.838C110.48 126.838 109.785 126.525 109.281 126.021C108.777 125.517 108.465 124.822 108.465 124.052C108.465 123.283 108.777 122.588 109.281 122.084ZM105.558 107.693C105.312 107.497 105.176 107.29 105.176 107.087C105.176 106.689 105.699 106.282 106.551 105.95C107.539 105.564 108.918 105.325 110.449 105.325C111.98 105.325 113.359 105.564 114.347 105.95C115.195 106.282 115.722 106.689 115.722 107.087C115.722 107.29 115.586 107.497 115.339 107.693C115.289 107.716 115.242 107.751 115.203 107.79C114.98 107.942 114.691 108.087 114.347 108.224C113.359 108.61 111.98 108.849 110.449 108.849C108.918 108.849 107.539 108.61 106.551 108.224C106.207 108.091 105.918 107.942 105.695 107.79C105.656 107.751 105.609 107.716 105.558 107.693ZM133.292 152.758C129.445 152.758 126.328 149.641 126.328 145.794C126.328 144.524 126.667 143.337 127.257 142.313C127.21 142.536 127.187 142.762 127.187 142.997C127.187 143.442 127.277 143.864 127.437 144.255C127.605 144.657 127.851 145.02 128.152 145.325C128.453 145.626 128.816 145.872 129.222 146.04C129.613 146.2 130.038 146.29 130.48 146.29C130.921 146.29 131.347 146.2 131.738 146.04C132.144 145.872 132.507 145.626 132.808 145.325C133.109 145.024 133.355 144.661 133.523 144.255C133.683 143.864 133.773 143.438 133.773 142.997C133.773 142.551 133.683 142.13 133.523 141.739C133.355 141.333 133.109 140.969 132.808 140.669C132.21 140.071 131.386 139.704 130.476 139.704C130.238 139.704 130.003 139.731 129.777 139.778C130.808 139.177 132.007 138.829 133.288 138.829C137.136 138.829 140.253 141.946 140.253 145.794C140.253 149.641 137.136 152.758 133.288 152.758L133.292 152.758ZM105.175 110.392C105.175 110.099 105.16 109.337 105.144 108.634H105.187C105.472 108.825 105.808 108.997 106.191 109.149C107.289 109.579 108.796 109.845 110.449 109.845C112.101 109.845 113.605 109.579 114.707 109.149C115.089 109.001 115.425 108.829 115.71 108.634H115.722V110.392C115.722 110.79 115.199 111.196 114.347 111.528C113.359 111.915 111.98 112.153 110.449 112.153C108.918 112.153 107.539 111.915 106.55 111.528C105.703 111.196 105.175 110.79 105.175 110.392ZM102.265 118.544V157.739C100.121 157.614 98.1831 156.688 96.7495 155.254C95.2065 153.711 94.2495 151.583 94.2495 149.243V117.145C94.2495 116 94.48 114.91 94.894 113.91C95.6362 115.184 96.6049 116.258 97.7221 117.055C99.0619 118.004 100.613 118.547 102.265 118.547L102.265 118.544ZM163.558 110.536C163.582 110.567 163.597 110.61 163.597 110.661C163.597 110.684 163.597 110.7 163.593 110.712L163.39 111.997C163.375 112.099 163.312 112.196 163.226 112.27C163.144 112.341 163.043 112.388 162.941 112.388H152.515H152.472C152.425 112.38 152.386 112.36 152.363 112.329C152.339 112.298 152.324 112.255 152.324 112.204C152.324 112.181 152.324 112.165 152.327 112.153L152.531 110.868C152.546 110.766 152.609 110.669 152.695 110.595C152.777 110.524 152.878 110.477 152.98 110.477H163.406H163.449C163.496 110.485 163.535 110.505 163.558 110.536ZM173.999 117.142V149.24C173.999 151.579 173.042 153.708 171.499 155.251C170.066 156.685 168.128 157.615 165.984 157.736V118.541C167.64 118.541 169.191 117.998 170.53 117.048C171.652 116.255 172.616 115.181 173.359 113.904C173.773 114.904 174.003 115.994 174.003 117.138L173.999 117.142ZM144.468 134.938C141.648 132.118 137.749 130.372 133.445 130.372C129.14 130.372 125.242 132.118 122.422 134.938C119.602 137.759 117.856 141.657 117.856 145.962C117.856 150.266 119.602 154.165 122.422 156.985C125.242 159.804 129.141 161.551 133.445 161.551C137.75 161.551 141.648 159.805 144.468 156.985C147.288 154.164 149.035 150.266 149.035 145.962C149.035 141.657 147.288 137.758 144.468 134.938ZM119.882 145.794C119.882 146.172 119.898 146.547 119.929 146.915C119.96 147.294 120.007 147.665 120.066 148.024C120.109 148.294 119.929 148.547 119.659 148.59C119.39 148.633 119.136 148.454 119.093 148.184C119.027 147.786 118.976 147.387 118.945 146.993C118.913 146.594 118.894 146.192 118.894 145.79C118.894 141.813 120.507 138.215 123.113 135.61C125.718 133.004 129.316 131.391 133.293 131.391C134.422 131.391 135.523 131.524 136.586 131.77C137.672 132.024 138.715 132.403 139.691 132.887C139.937 133.008 140.035 133.305 139.914 133.547C139.793 133.793 139.496 133.891 139.254 133.77C138.343 133.317 137.375 132.965 136.359 132.727C135.375 132.496 134.347 132.375 133.293 132.375C129.59 132.375 126.238 133.875 123.812 136.301C121.386 138.727 119.886 142.078 119.886 145.782L119.882 145.794ZM125.335 145.794C125.335 143.598 126.226 141.61 127.663 140.169C129.101 138.731 131.093 137.84 133.288 137.84C137.683 137.84 141.241 141.403 141.241 145.794C141.241 150.188 137.679 153.747 133.288 153.747C128.894 153.747 125.335 150.184 125.335 145.794ZM143.472 155.974C140.867 158.579 137.269 160.192 133.292 160.192C133.019 160.192 132.796 159.97 132.796 159.696C132.796 159.423 133.019 159.2 133.292 159.2C136.995 159.2 140.347 157.7 142.773 155.274C145.199 152.849 146.699 149.497 146.699 145.794C146.699 144.614 146.546 143.47 146.265 142.388C145.972 141.267 145.534 140.2 144.98 139.216C144.847 138.977 144.929 138.681 145.167 138.544C145.406 138.411 145.702 138.493 145.839 138.731C146.437 139.794 146.906 140.934 147.222 142.138C147.527 143.309 147.691 144.532 147.691 145.79C147.691 149.766 146.077 153.364 143.472 155.97L143.472 155.974ZM169.96 116.247C171.128 115.418 172.113 114.243 172.82 112.829C172.452 112.207 172.007 111.637 171.499 111.129C169.956 109.586 167.827 108.629 165.488 108.629H148.828C148.671 108.629 148.535 108.559 148.445 108.446L142.285 101.528C142.128 101.352 141.949 101.219 141.757 101.129C141.562 101.043 141.347 100.996 141.109 100.996H125.632C125.39 100.996 125.167 101.043 124.968 101.133C124.769 101.227 124.589 101.364 124.429 101.547L118.542 108.422C118.452 108.543 118.308 108.621 118.144 108.621H116.71V110.379C116.71 111.227 115.944 111.95 114.706 112.434C113.608 112.864 112.101 113.129 110.448 113.129C108.796 113.129 107.288 112.864 106.19 112.434C104.952 111.95 104.187 111.227 104.187 110.379C104.187 110.039 104.175 109.297 104.159 108.621H102.761C100.421 108.621 98.292 109.578 96.7491 111.121C96.2413 111.629 95.796 112.2 95.4288 112.821C96.1358 114.231 97.1202 115.41 98.2882 116.239C99.4601 117.067 100.819 117.543 102.265 117.543H165.984C167.429 117.543 168.789 117.067 169.96 116.239L169.96 116.247ZM139.569 111.559C139.569 112.059 139.366 112.512 139.038 112.84C138.71 113.168 138.257 113.371 137.757 113.371H128.358C127.858 113.371 127.405 113.168 127.077 112.84C126.749 112.512 126.546 112.059 126.546 111.559V109.454C126.546 108.954 126.749 108.5 127.077 108.172C127.405 107.844 127.858 107.641 128.358 107.641H137.757C138.257 107.641 138.71 107.844 139.038 108.172C139.366 108.5 139.569 108.954 139.569 109.454V111.559ZM143.983 104.778L143.018 105.86C142.768 106.141 142.479 106.356 142.155 106.5C141.831 106.645 141.479 106.719 141.104 106.719H125.627C125.245 106.719 124.881 106.641 124.549 106.489C124.221 106.336 123.928 106.114 123.674 105.821L122.76 104.754C122.584 104.547 122.608 104.235 122.815 104.059C123.022 103.883 123.334 103.907 123.51 104.114L124.424 105.18C124.581 105.364 124.76 105.5 124.963 105.594C125.163 105.684 125.385 105.731 125.627 105.731H141.104C141.343 105.731 141.561 105.688 141.753 105.598C141.948 105.512 142.124 105.379 142.28 105.2L143.245 104.118C143.425 103.915 143.737 103.895 143.94 104.079C144.143 104.258 144.163 104.571 143.979 104.774L143.983 104.778ZM164.565 110.864L164.362 112.149C164.308 112.489 164.124 112.797 163.87 113.012C163.612 113.235 163.284 113.372 162.94 113.372H152.514C152.452 113.372 152.385 113.364 152.315 113.356C152.026 113.309 151.78 113.168 151.608 112.961C151.432 112.754 151.335 112.489 151.335 112.2C151.335 112.141 151.342 112.071 151.354 111.997L151.557 110.711C151.612 110.372 151.796 110.063 152.049 109.848C152.307 109.625 152.635 109.489 152.979 109.489H163.405C163.468 109.489 163.534 109.497 163.604 109.504C163.893 109.551 164.14 109.692 164.311 109.899C164.487 110.106 164.585 110.372 164.585 110.661C164.585 110.719 164.577 110.789 164.565 110.864Z" fill="var(--fill-0, white)"/>
</g>
</g>
</svg>
